HIERARCHY
ROOT Hips
{
	OFFSET 0.000000 100.481300 0.000000
	CHANNELS 6 Xposition Yposition Zposition Xrotation Yrotation Zrotation
	JOINT Spine
	{
		OFFSET -0.279200 12.230698 -2.892100
		CHANNELS 3 Xrotation Yrotation Zrotation
		JOINT Spine1
		{
			OFFSET -0.325700 14.269203 -3.374200
			CHANNELS 3 Xrotation Yrotation Zrotation
			JOINT Spine2
			{
				OFFSET -0.372300 16.307602 -0.352600
				CHANNELS 3 Xrotation Yrotation Zrotation
				JOINT Neck
				{
					OFFSET -0.418800 17.814194 8.416900
					CHANNELS 3 Xrotation Yrotation Zrotation
					JOINT Head
					{
						OFFSET 0.000000 7.031097 3.806800
						CHANNELS 3 Xrotation Yrotation Zrotation
						JOINT HeadTop_End
						{
							OFFSET 0.000000 24.646606 12.978600
							CHANNELS 3 Xrotation Yrotation Zrotation
							End Site
							{
								OFFSET 0.000000 27.854965 0.000000
							}
						}
					}
				}
				JOINT LeftShoulder
				{
					OFFSET 16.952999 14.495407 -7.737500
					CHANNELS 3 Xrotation Yrotation Zrotation
					JOINT LeftArm
					{
						OFFSET 9.308998 -2.777710 0.208600
						CHANNELS 3 Xrotation Yrotation Zrotation
						JOINT LeftForeArm
						{
							OFFSET 29.972298 0.000000 0.000000
							CHANNELS 3 Xrotation Yrotation Zrotation
							JOINT LeftHand
							{
								OFFSET 26.026505 0.000000 0.000000
								CHANNELS 3 Xrotation Yrotation Zrotation
								JOINT LeftHandThumb1
								{
									OFFSET 12.240501 -7.147949 9.207150
									CHANNELS 3 Xrotation Yrotation Zrotation
									JOINT LeftHandThumb2
									{
										OFFSET 4.138618 -2.389435 2.389433
										CHANNELS 3 Xrotation Yrotation Zrotation
										JOINT LeftHandThumb3
										{
											OFFSET 2.726913 -1.574387 1.574386
											CHANNELS 3 Xrotation Yrotation Zrotation
											JOINT LeftHandThumb4
											{
												OFFSET 3.941010 -2.275345 2.275342
												CHANNELS 3 Xrotation Yrotation Zrotation
												End Site
												{
													OFFSET -0.005798 5.087799 0.009903
												}
											}
										}
									}
								}
								JOINT LeftHandIndex1
								{
									OFFSET 24.424698 -1.985611 5.953459
									CHANNELS 3 Xrotation Yrotation Zrotation
									JOINT LeftHandIndex2
									{
										OFFSET 6.426697 0.000000 0.000000
										CHANNELS 3 Xrotation Yrotation Zrotation
										JOINT LeftHandIndex3
										{
											OFFSET 5.337898 0.000000 0.000000
											CHANNELS 3 Xrotation Yrotation Zrotation
											JOINT LeftHandIndex4
											{
												OFFSET 4.409401 0.000000 0.000000
												CHANNELS 3 Xrotation Yrotation Zrotation
												End Site
												{
													OFFSET 0.000000 4.409363 0.014373
												}
											}
										}
									}
								}
								JOINT LeftHandMiddle1
								{
									OFFSET 23.810104 0.000000 0.000000
									CHANNELS 3 Xrotation Yrotation Zrotation
									JOINT LeftHandMiddle2
									{
										OFFSET 7.176498 0.000000 0.000000
										CHANNELS 3 Xrotation Yrotation Zrotation
										JOINT LeftHandMiddle3
										{
											OFFSET 6.774902 0.000000 0.000000
											CHANNELS 3 Xrotation Yrotation Zrotation
											JOINT LeftHandMiddle4
											{
												OFFSET 5.403328 0.000000 0.000000
												CHANNELS 3 Xrotation Yrotation Zrotation
												End Site
												{
													OFFSET -0.027702 5.403244 0.017414
												}
											}
										}
									}
								}
								JOINT LeftHandRing1
								{
									OFFSET 22.908401 -0.839279 -6.020567
									CHANNELS 3 Xrotation Yrotation Zrotation
									JOINT LeftHandRing2
									{
										OFFSET 6.337502 0.000000 0.000000
										CHANNELS 3 Xrotation Yrotation Zrotation
										JOINT LeftHandRing3
										{
											OFFSET 5.779297 0.000000 0.000000
											CHANNELS 3 Xrotation Yrotation Zrotation
											JOINT LeftHandRing4
											{
												OFFSET 4.965698 0.000000 0.000000
												CHANNELS 3 Xrotation Yrotation Zrotation
												End Site
												{
													OFFSET 0.000000 4.965668 0.016186
												}
											}
										}
									}
								}
								JOINT LeftHandPinky1
								{
									OFFSET 20.037003 -1.530319 -10.950146
									CHANNELS 3 Xrotation Yrotation Zrotation
									JOINT LeftHandPinky2
									{
										OFFSET 5.254700 0.000000 0.000000
										CHANNELS 3 Xrotation Yrotation Zrotation
										JOINT LeftHandPinky3
										{
											OFFSET 4.810204 0.000000 0.000000
											CHANNELS 3 Xrotation Yrotation Zrotation
											JOINT LeftHandPinky4
											{
												OFFSET 3.647202 0.000000 0.000000
												CHANNELS 3 Xrotation Yrotation Zrotation
												End Site
												{
													OFFSET 0.000000 3.647186 0.011889
												}
											}
										}
									}
								}
							}
						}
					}
				}
				JOINT RightShoulder
				{
					OFFSET -15.141001 14.495407 -7.737500
					CHANNELS 3 Xrotation Yrotation Zrotation
					JOINT RightArm
					{
						OFFSET -9.308998 -2.777710 0.208500
						CHANNELS 3 Xrotation Yrotation Zrotation
						JOINT RightForeArm
						{
							OFFSET -29.972300 0.000000 0.000000
							CHANNELS 3 Xrotation Yrotation Zrotation
							JOINT RightHand
							{
								OFFSET -26.026505 0.000000 0.000000
								CHANNELS 3 Xrotation Yrotation Zrotation
								JOINT RightHandThumb1
								{
									OFFSET -12.240601 -7.148026 9.207092
									CHANNELS 3 Xrotation Yrotation Zrotation
									JOINT RightHandThumb2
									{
										OFFSET -4.138618 -2.389435 2.389433
										CHANNELS 3 Xrotation Yrotation Zrotation
										JOINT RightHandThumb3
										{
											OFFSET -2.726974 -1.574417 1.574421
											CHANNELS 3 Xrotation Yrotation Zrotation
											JOINT RightHandThumb4
											{
												OFFSET -3.941010 -2.275345 2.275343
												CHANNELS 3 Xrotation Yrotation Zrotation
												End Site
												{
													OFFSET 0.005814 5.087799 0.009927
												}
											}
										}
									}
								}
								JOINT RightHandIndex1
								{
									OFFSET -24.424698 -1.985657 5.953444
									CHANNELS 3 Xrotation Yrotation Zrotation
									JOINT RightHandIndex2
									{
										OFFSET -6.426697 0.000000 0.000000
										CHANNELS 3 Xrotation Yrotation Zrotation
										JOINT RightHandIndex3
										{
											OFFSET -5.337898 0.000000 0.000000
											CHANNELS 3 Xrotation Yrotation Zrotation
											JOINT RightHandIndex4
											{
												OFFSET -4.409401 0.000000 0.000000
												CHANNELS 3 Xrotation Yrotation Zrotation
												End Site
												{
													OFFSET 0.000000 4.409363 0.014408
												}
											}
										}
									}
								}
								JOINT RightHandMiddle1
								{
									OFFSET -23.810097 0.000000 0.000000
									CHANNELS 3 Xrotation Yrotation Zrotation
									JOINT RightHandMiddle2
									{
										OFFSET -7.176498 0.000000 0.000000
										CHANNELS 3 Xrotation Yrotation Zrotation
										JOINT RightHandMiddle3
										{
											OFFSET -6.774902 0.000000 0.000000
											CHANNELS 3 Xrotation Yrotation Zrotation
											JOINT RightHandMiddle4
											{
												OFFSET -5.403328 0.000000 0.000000
												CHANNELS 3 Xrotation Yrotation Zrotation
												End Site
												{
													OFFSET 0.027702 5.403244 0.017457
												}
											}
										}
									}
								}
								JOINT RightHandRing1
								{
									OFFSET -22.908302 -0.839325 -6.020576
									CHANNELS 3 Xrotation Yrotation Zrotation
									JOINT RightHandRing2
									{
										OFFSET -6.337502 0.000000 0.000000
										CHANNELS 3 Xrotation Yrotation Zrotation
										JOINT RightHandRing3
										{
											OFFSET -5.779297 0.000000 0.000000
											CHANNELS 3 Xrotation Yrotation Zrotation
											JOINT RightHandRing4
											{
												OFFSET -4.965698 0.000000 0.000000
												CHANNELS 3 Xrotation Yrotation Zrotation
												End Site
												{
													OFFSET 0.000000 4.965668 0.016226
												}
											}
										}
									}
								}
								JOINT RightHandPinky1
								{
									OFFSET -20.037003 -1.530334 -10.950259
									CHANNELS 3 Xrotation Yrotation Zrotation
									JOINT RightHandPinky2
									{
										OFFSET -5.254700 0.000000 0.000000
										CHANNELS 3 Xrotation Yrotation Zrotation
										JOINT RightHandPinky3
										{
											OFFSET -4.810204 0.000000 0.000000
											CHANNELS 3 Xrotation Yrotation Zrotation
											JOINT RightHandPinky4
											{
												OFFSET -3.647202 0.000000 0.000000
												CHANNELS 3 Xrotation Yrotation Zrotation
												End Site
												{
													OFFSET 0.000000 3.647186 0.011917
												}
											}
										}
									}
								}
							}
						}
					}
				}
			}
		}
	}
	JOINT LeftUpLeg
	{
		OFFSET 15.427100 -6.655098 0.678600
		CHANNELS 3 Xrotation Yrotation Zrotation
		JOINT LeftLeg
		{
			OFFSET 4.081073 -39.591068 13.024000
			CHANNELS 3 Xrotation Yrotation Zrotation
			JOINT LeftFoot
			{
				OFFSET -4.081074 -37.707932 -15.979700
				CHANNELS 3 Xrotation Yrotation Zrotation
				JOINT LeftToeBase
				{
					OFFSET 5.346399 -15.068900 20.645000
					CHANNELS 3 Xrotation Yrotation Zrotation
					JOINT LeftToe_End
					{
						OFFSET 2.754700 0.931300 11.300900
						CHANNELS 3 Xrotation Yrotation Zrotation
						End Site
						{
							OFFSET 0.000000 11.669021 0.000000
						}
					}
				}
			}
		}
	}
	JOINT RightUpLeg
	{
		OFFSET -15.569500 -6.655098 0.678600
		CHANNELS 3 Xrotation Yrotation Zrotation
		JOINT RightLeg
		{
			OFFSET -4.081825 -39.591045 13.023800
			CHANNELS 3 Xrotation Yrotation Zrotation
			JOINT RightFoot
			{
				OFFSET 4.081824 -37.707954 -15.979600
				CHANNELS 3 Xrotation Yrotation Zrotation
				JOINT RightToeBase
				{
					OFFSET -5.346400 -15.068900 20.645000
					CHANNELS 3 Xrotation Yrotation Zrotation
					JOINT RightToe_End
					{
						OFFSET -2.754700 0.931300 11.300900
						CHANNELS 3 Xrotation Yrotation Zrotation
						End Site
						{
							OFFSET 0.000000 11.669021 0.000000
						}
					}
				}
			}
		}
	}
}
MOTION
Frames: 4
Frame Time: 0.033333
16.106348 74.121391 -0.191086 25.719952 -40.220324 9.528700 9.126954 -0.601659 2.108897 17.374613 -5.112837 -1.535903 17.379543 -5.071632 -1.596741 1.796489 5.551132 2.258154 -37.105904 34.886294 -4.864975 -0.000001 -0.000001 0.000001 0.520503 -1.813875 -4.932085 -36.729506 -13.911508 -30.953266 0.000087 -73.224450 0.000098 9.482608 -3.196068 6.204627 -7.938138 -8.665835 11.587990 3.946742 7.971416 0.752860 -0.575593 1.586236 2.542377 0.000001 0.000001 0.000001 0.042462 0.765210 -6.354235 0.042470 0.765226 -6.354216 0.042492 0.765217 -6.354231 0.000002 -0.000000 -0.000001 0.093060 1.130472 -9.410993 0.131916 1.344117 -11.211126 0.139419 1.381411 -11.526695 0.000002 -0.000002 0.000001 0.228085 1.760992 -14.759487 0.320990 2.081656 -17.529139 0.340104 2.141242 -18.048570 -0.000000 0.000001 0.000000 2.173852 6.472476 -23.043772 0.575438 -1.312464 -23.894802 0.569579 2.746760 -23.425186 0.000001 0.000003 0.000003 0.650204 -1.912423 9.917110 -7.679616 8.439668 57.575886 0.000015 59.371474 -0.000005 8.389438 4.557920 -3.181925 -3.659411 15.254854 -18.672492 4.645033 -8.656787 -0.231315 -1.269836 0.126077 -2.098677 -0.000000 -0.000000 0.000001 0.057327 -0.892859 7.347170 0.057328 -0.892858 7.347170 0.057327 -0.892856 7.347156 -0.000000 0.000000 -0.000000 0.106581 -1.215233 10.024283 0.150155 -1.440060 11.904563 0.159136 -1.482050 12.257136 0.000000 -0.000000 0.000001 0.240866 -1.817770 15.094990 0.338912 -2.148324 17.927725 0.359115 -2.209746 18.459027 0.000001 0.000000 -0.000001 0.582692 -2.791041 23.580422 0.582687 -2.791038 23.580383 0.582691 -2.791032 23.580386 0.000001 0.000000 0.000001 -67.133274 -6.733622 10.661577 90.520183 7.899868 -0.859248 -9.536548 -0.136318 -5.020605 -0.433212 0.007631 -1.010457 -0.000002 0.000000 -0.000000 -58.490031 -5.979863 8.241291 61.917297 -9.204400 -0.724073 -22.403895 -11.686513 1.430534 -0.258946 0.000025 0.000005 -0.000000 0.000001 -0.000000 
16.010696 76.775848 4.901920 27.607317 -41.378570 13.089380 8.842482 -0.630637 1.028610 16.966094 -4.762942 -2.609158 16.976099 -4.698330 -2.659142 1.980255 5.535527 2.201799 -36.893612 34.713026 -4.724888 0.000001 -0.000000 -0.000001 0.525798 -1.661988 -5.670623 -35.966977 -12.570680 -29.458333 0.000024 -74.217464 0.000032 8.899380 -3.210553 6.089645 -7.938137 -8.665840 11.587994 3.946738 7.971415 0.752864 -0.575591 1.586239 2.542381 -0.000001 -0.000001 -0.000000 0.042461 0.765204 -6.354229 0.042475 0.765222 -6.354214 0.042490 0.765217 -6.354233 -0.000000 -0.000001 -0.000002 0.093060 1.130467 -9.410989 0.131917 1.344122 -11.211127 0.139419 1.381414 -11.526696 -0.000001 -0.000001 0.000000 0.228086 1.760986 -14.759487 0.320988 2.081657 -17.529143 0.340105 2.141245 -18.048567 0.000002 0.000001 -0.000001 2.173852 6.472470 -23.043769 0.575437 -1.312462 -23.894802 0.569582 2.746764 -23.425186 -0.000001 0.000002 0.000001 0.649704 -1.866948 9.893088 -8.535138 10.270404 57.336125 0.000003 60.976152 0.000003 8.722461 4.283990 -3.514911 -3.659413 15.254855 -18.672492 4.645031 -8.656784 -0.231322 -1.269837 0.126074 -2.098665 0.000001 -0.000001 0.000001 0.057325 -0.892859 7.347165 0.057328 -0.892857 7.347170 0.057327 -0.892855 7.347154 0.000001 0.000000 -0.000000 0.106579 -1.215233 10.024283 0.150153 -1.440060 11.904559 0.159138 -1.482048 12.257136 0.000001 -0.000000 0.000000 0.240866 -1.817769 15.094990 0.338913 -2.148324 17.927720 0.359114 -2.209745 18.459025 0.000001 0.000001 0.000000 0.582691 -2.791041 23.580426 0.582687 -2.791039 23.580385 0.582691 -2.791031 23.580390 -0.000000 -0.000000 0.000001 -68.820269 -7.687958 12.004535 80.155596 8.714814 -0.571144 -11.361980 -0.008935 -1.268665 -0.000003 0.000003 0.000008 0.000001 0.000001 0.000001 -55.280501 -2.731692 4.854492 59.343853 -8.635030 -0.294963 -22.716043 -10.123694 1.377861 -0.467541 -0.000032 0.000003 0.000000 0.000002 0.000000 
16.044622 78.851173 9.497337 28.740015 -42.872315 16.023077 8.663510 -0.838157 -0.224493 16.782430 -4.219184 -3.513237 16.794727 -4.142207 -3.551437 2.035549 5.518580 2.139826 -36.029091 34.607213 -4.904723 0.000002 0.000001 -0.000000 0.531060 -1.485215 -6.336492 -35.652887 -10.782702 -28.226354 0.000029 -75.400651 0.000024 7.516396 -2.887651 5.935993 -7.938132 -8.665837 11.587984 3.946746 7.971421 0.752861 -0.575593 1.586240 2.542382 -0.000001 0.000002 0.000004 0.042464 0.765206 -6.354234 0.042470 0.765220 -6.354216 0.042490 0.765223 -6.354232 0.000001 -0.000004 0.000003 0.093063 1.130468 -9.410992 0.131914 1.344119 -11.211126 0.139418 1.381406 -11.526695 0.000001 -0.000001 0.000000 0.228089 1.760987 -14.759491 0.320989 2.081659 -17.529143 0.340106 2.141244 -18.048568 -0.000001 0.000002 -0.000001 2.173857 6.472470 -23.043771 0.575437 -1.312462 -23.894800 0.569581 2.746765 -23.425187 0.000002 0.000003 -0.000001 0.644172 -1.795346 9.797261 -9.659506 11.466229 56.804689 0.000009 63.139013 -0.000005 7.384222 4.011790 -4.535189 -3.659410 15.254854 -18.672491 4.645032 -8.656785 -0.231316 -1.269838 0.126075 -2.098673 -0.000002 0.000000 -0.000003 0.057326 -0.892859 7.347170 0.057327 -0.892857 7.347169 0.057326 -0.892855 7.347154 0.000001 0.000000 -0.000000 0.106581 -1.215233 10.024284 0.150151 -1.440061 11.904560 0.159138 -1.482049 12.257139 -0.000000 0.000000 0.000001 0.240866 -1.817770 15.094993 0.338913 -2.148324 17.927722 0.359113 -2.209745 18.459025 0.000001 0.000000 -0.000001 0.582693 -2.791041 23.580429 0.582686 -2.791039 23.580381 0.582691 -2.791032 23.580386 -0.000000 0.000000 -0.000001 -68.275097 -7.600426 14.194126 68.035699 8.856448 -0.226144 -11.626579 1.066940 0.962180 -0.000009 -0.000007 -0.000010 -0.000001 -0.000000 0.000001 -52.377681 -0.088787 1.439789 57.249215 -8.609383 0.036566 -21.547647 -8.595594 1.844295 -1.158836 0.000064 0.000005 -0.000000 -0.000001 0.000000 
16.099524 80.094833 13.742444 28.903212 -44.016352 17.413323 8.581263 -1.160050 -1.212437 16.802697 -3.731898 -3.880485 16.818062 -3.639615 -3.911018 2.026702 5.501717 2.172821 -35.348886 34.597835 -5.148791 -0.000001 0.000000 -0.000001 0.533544 -1.390314 -6.626107 -35.742578 -8.284459 -27.444568 -0.000125 -77.162505 -0.000128 5.502410 -2.090691 5.621899 -7.938136 -8.665839 11.587984 3.946737 7.971414 0.752859 -0.575593 1.586241 2.542382 -0.000001 0.000001 0.000000 0.042462 0.765203 -6.354233 0.042470 0.765225 -6.354217 0.042491 0.765220 -6.354230 0.000001 0.000002 -0.000001 0.093061 1.130466 -9.410991 0.131917 1.344116 -11.211129 0.139422 1.381407 -11.526694 -0.000001 -0.000007 0.000001 0.228087 1.760986 -14.759487 0.320990 2.081657 -17.529139 0.340103 2.141247 -18.048572 0.000002 0.000001 -0.000001 2.173854 6.472468 -23.043769 0.575435 -1.312457 -23.894799 0.569581 2.746762 -23.425187 -0.000000 0.000003 -0.000001 0.644001 -1.823788 9.805315 -10.755705 12.324128 55.901021 0.000014 65.750167 -0.000020 5.415356 3.807256 -5.730662 -3.659409 15.254852 -18.672494 4.645032 -8.656785 -0.231321 -1.269838 0.126074 -2.098667 -0.000003 0.000001 -0.000001 0.057325 -0.892859 7.347169 0.057328 -0.892857 7.347168 0.057327 -0.892856 7.347155 -0.000001 -0.000000 0.000000 0.106582 -1.215232 10.024284 0.150153 -1.440061 11.904561 0.159138 -1.482049 12.257135 0.000001 -0.000001 0.000000 0.240867 -1.817770 15.094991 0.338913 -2.148325 17.927725 0.359115 -2.209745 18.459027 -0.000000 -0.000000 0.000000 0.582693 -2.791041 23.580426 0.582688 -2.791039 23.580386 0.582694 -2.791032 23.580386 -0.000001 0.000000 -0.000002 -67.285928 -7.645714 16.743845 56.195241 8.358983 0.020699 -10.658320 0.507154 2.576122 0.000004 0.000002 -0.000004 -0.000000 0.000003 0.000001 -49.330228 1.540671 -1.771848 55.910344 -8.977691 0.264031 -20.393625 -7.453611 3.006339 -2.013377 -0.000428 0.241872 -0.000000 -0.000002 0.000001 
